Rubik-Black.ufo
<glyph name="less" format="2">
  <advance width="538"/>
  <unicode hex="003C"/>
  <outline>
    <contour>
      <point x="464" y="-9" type="curve" smooth="yes"/>
      <point x="476" y="-9"/>
      <point x="485" y="0"/>
      <point x="485" y="12" type="curve" smooth="yes"/>
      <point x="485" y="174" type="line" smooth="yes"/>
      <point x="485" y="200"/>
      <point x="465" y="210"/>
      <point x="453" y="217" type="curve" smooth="yes"/>
      <point x="278" y="327" type="line"/>
      <point x="453" y="436" type="line" smooth="yes"/>
      <point x="465" y="443"/>
      <point x="485" y="454"/>
      <point x="485" y="480" type="curve" smooth="yes"/>
      <point x="485" y="642" type="line" smooth="yes"/>
      <point x="485" y="654"/>
      <point x="476" y="663"/>
      <point x="464" y="663" type="curve" smooth="yes"/>
      <point x="462" y="663"/>
      <point x="458" y="663"/>
      <point x="453" y="660" type="curve" smooth="yes"/>
      <point x="53" y="390" type="line" smooth="yes"/>
      <point x="35" y="378"/>
      <point x="24" y="369"/>
      <point x="24" y="348" type="curve" smooth="yes"/>
      <point x="24" y="306" type="line" smooth="yes"/>
      <point x="24" y="285"/>
      <point x="35" y="276"/>
      <point x="53" y="264" type="curve" smooth="yes"/>
      <point x="453" y="-6" type="line" smooth="yes"/>
      <point x="458" y="-9"/>
      <point x="462" y="-9"/>
    </contour>
  </outline>
</glyph>
<glyph name="greater" format="2">
  <advance width="538"/>
  <unicode hex="003E"/>
  <outline>
    <contour>
      <point x="74" y="-10" type="curve" smooth="yes"/>
      <point x="76" y="-10"/>
      <point x="80" y="-10"/>
      <point x="85" y="-7" type="curve" smooth="yes"/>
      <point x="485" y="263" type="line" smooth="yes"/>
      <point x="503" y="275"/>
      <point x="514" y="284"/>
      <point x="514" y="305" type="curve" smooth="yes"/>
      <point x="514" y="347" type="line"/>
      <point x="514" y="368"/>
      <point x="503" y="377"/>
      <point x="485" y="389" type="curve" smooth="yes"/>
      <point x="85" y="659" type="line" smooth="yes"/>
      <point x="80" y="662"/>
      <point x="76" y="662"/>
      <point x="74" y="662" type="curve" smooth="yes"/>
      <point x="62" y="662"/>
      <point x="53" y="653"/>
      <point x="53" y="641" type="curve" smooth="yes"/>
      <point x="53" y="479" type="line" smooth="yes"/>
      <point x="53" y="453"/>
      <point x="73" y="442"/>
      <point x="85" y="435" type="curve" smooth="yes"/>
      <point x="260" y="326" type="line"/>
      <point x="85" y="216" type="line" smooth="yes"/>
      <point x="73" y="209"/>
      <point x="53" y="199"/>
      <point x="53" y="173" type="curve" smooth="yes"/>
      <point x="53" y="11" type="line" smooth="yes"/>
      <point x="53" y="-1"/>
      <point x="62" y="-10"/>
    </contour>
  </outline>
</glyph>
<glyph name="logicalnot" format="2">
  <advance width="564"/>
  <unicode hex="00AC"/>
  <outline>
    <contour>
      <point x="368" y="113" type="curve" smooth="yes"/>
      <point x="484" y="113" type="line" smooth="yes"/>
      <point x="499" y="113"/>
      <point x="511" y="125"/>
      <point x="511" y="140" type="curve" smooth="yes"/>
      <point x="511" y="383" type="line" smooth="yes"/>
      <point x="511" y="398"/>
      <point x="499" y="410"/>
      <point x="484" y="410" type="curve" smooth="yes"/>
      <point x="69" y="410" type="line" smooth="yes"/>
      <point x="54" y="410"/>
      <point x="42" y="398"/>
      <point x="42" y="383" type="curve" smooth="yes"/>
      <point x="42" y="267" type="line" smooth="yes"/>
      <point x="42" y="252"/>
      <point x="54" y="240"/>
      <point x="69" y="240" type="curve" smooth="yes"/>
      <point x="341" y="240" type="line"/>
      <point x="341" y="140" type="line" smooth="yes"/>
      <point x="341" y="125"/>
      <point x="353" y="113"/>
    </contour>
  </outline>
</glyph>
<glyph name="periodcentered" format="2">
  <advance width="330"/>
  <unicode hex="00B7"/>
  <outline>
    <contour>
      <point x="165" y="180" type="curve" smooth="yes"/>
      <point x="242" y="180"/>
      <point x="305" y="243"/>
      <point x="305" y="320" type="curve" smooth="yes"/>
      <point x="305" y="397"/>
      <point x="242" y="460"/>
      <point x="165" y="460" type="curve" smooth="yes"/>
      <point x="88" y="460"/>
      <point x="25" y="397"/>
      <point x="25" y="320" type="curve" smooth="yes"/>
      <point x="25" y="243"/>
      <point x="88" y="180"/>
    </contour>
  </outline>
</glyph>
<glyph name="multiply" format="2">
  <advance width="639"/>
  <unicode hex="00D7"/>
  <outline>
    <contour>
      <point x="161" y="20" type="line" smooth="yes"/>
      <point x="171" y="10"/>
      <point x="188" y="10"/>
      <point x="199" y="20" type="curve" smooth="yes"/>
      <point x="320" y="141" type="line"/>
      <point x="440" y="21" type="line" smooth="yes"/>
      <point x="451" y="11"/>
      <point x="467" y="11"/>
      <point x="478" y="21" type="curve" smooth="yes"/>
      <point x="598" y="141" type="line" smooth="yes"/>
      <point x="608" y="151"/>
      <point x="608" y="168"/>
      <point x="598" y="179" type="curve" smooth="yes"/>
      <point x="478" y="299" type="line"/>
      <point x="598" y="419" type="line" smooth="yes"/>
      <point x="608" y="430"/>
      <point x="608" y="447"/>
      <point x="598" y="457" type="curve" smooth="yes"/>
      <point x="478" y="577" type="line" smooth="yes"/>
      <point x="467" y="587"/>
      <point x="451" y="587"/>
      <point x="440" y="577" type="curve" smooth="yes"/>
      <point x="320" y="457" type="line"/>
      <point x="199" y="578" type="line" smooth="yes"/>
      <point x="188" y="588"/>
      <point x="171" y="588"/>
      <point x="161" y="578" type="curve" smooth="yes"/>
      <point x="41" y="458" type="line" smooth="yes"/>
      <point x="31" y="447"/>
      <point x="31" y="431"/>
      <point x="41" y="420" type="curve" smooth="yes"/>
      <point x="162" y="299" type="line"/>
      <point x="41" y="178" type="line" smooth="yes"/>
      <point x="31" y="167"/>
      <point x="31" y="151"/>
      <point x="41" y="140" type="curve" smooth="yes"/>
    </contour>
  </outline>
</glyph>
<glyph name="hbar" format="2">
  <advance width="685"/>
  <unicode hex="0127"/>
  <anchor x="343" y="0" name="bottom"/>
  <anchor x="187" y="599" name="center"/>
  <anchor x="343" y="676" name="top"/>
  <outline>
    <contour>
      <point x="20" y="538" type="curve" smooth="yes"/>
      <point x="319" y="538" type="line" smooth="yes"/>
      <point x="334" y="538"/>
      <point x="346" y="550"/>
      <point x="346" y="565" type="curve" smooth="yes"/>
      <point x="346" y="616" type="line" smooth="yes"/>
      <point x="346" y="631"/>
      <point x="334" y="643"/>
      <point x="319" y="643" type="curve" smooth="yes"/>
      <point x="20" y="643" type="line" smooth="yes"/>
      <point x="5" y="643"/>
      <point x="-7" y="631"/>
      <point x="-7" y="616" type="curve" smooth="yes"/>
      <point x="-7" y="565" type="line" smooth="yes"/>
      <point x="-7" y="550"/>
      <point x="5" y="538"/>
    </contour>
    <component base="h"/>
  </outline>
</glyph>
<glyph name="napostrophe" format="2">
  <advance width="674"/>
  <unicode hex="0149"/>
  <anchor x="343" y="0" name="bottom"/>
  <anchor x="340" y="520" name="top"/>
  <outline>
    <contour>
      <point x="-75" y="550" type="curve" smooth="yes"/>
      <point x="30" y="550" type="line" smooth="yes"/>
      <point x="56" y="550"/>
      <point x="68" y="569"/>
      <point x="73" y="582" type="curve" smooth="yes"/>
      <point x="128" y="721" type="line" smooth="yes"/>
      <point x="129" y="724"/>
      <point x="129" y="726"/>
      <point x="129" y="728" type="curve" smooth="yes"/>
      <point x="129" y="740"/>
      <point x="119" y="750"/>
      <point x="107" y="750" type="curve" smooth="yes"/>
      <point x="-33" y="750" type="line" smooth="yes"/>
      <point x="-60" y="750"/>
      <point x="-73" y="729"/>
      <point x="-76" y="711" type="curve"/>
      <point x="-97" y="572" type="line"/>
      <point x="-97" y="560"/>
      <point x="-87" y="550"/>
    </contour>
    <component base="n"/>
  </outline>
</glyph>
<glyph name="scedilla" format="2">
  <advance width="590"/>
  <unicode hex="015F"/>
  <outline>
    <contour>
      <point x="299" y="-220" type="curve" smooth="yes"/>
      <point x="359" y="-220"/>
      <point x="398" y="-183"/>
      <point x="398" y="-130" type="curve" smooth="yes"/>
      <point x="398" y="-77"/>
      <point x="368" y="-40"/>
      <point x="317" y="-40" type="curve" smooth="yes"/>
      <point x="313" y="-40"/>
      <point x="295" y="-42"/>
      <point x="287" y="-45" type="curve"/>
      <point x="305" y="-10" type="line"/>
      <point x="474" y="-6"/>
      <point x="569" y="58"/>
      <point x="569" y="162" type="curve" smooth="yes"/>
      <point x="569" y="230"/>
      <point x="518" y="309"/>
      <point x="374" y="330" type="curve" smooth="yes"/>
      <point x="270" y="345"/>
      <point x="264" y="357"/>
      <point x="264" y="374" type="curve" smooth="yes"/>
      <point x="264" y="383"/>
      <point x="274" y="390"/>
      <point x="284" y="390" type="curve" smooth="yes"/>
      <point x="313" y="390"/>
      <point x="328" y="360"/>
      <point x="357" y="360" type="curve" smooth="yes"/>
      <point x="360" y="360"/>
      <point x="362" y="360"/>
      <point x="365" y="360" type="curve" smooth="yes"/>
      <point x="525" y="360" type="line" smooth="yes"/>
      <point x="537" y="360"/>
      <point x="548" y="372"/>
      <point x="547" y="387" type="curve" smooth="yes"/>
      <point x="544" y="444"/>
      <point x="450" y="530"/>
      <point x="285" y="530" type="curve" smooth="yes"/>
      <point x="120" y="530"/>
      <point x="32" y="445"/>
      <point x="32" y="359" type="curve" smooth="yes"/>
      <point x="32" y="254"/>
      <point x="122" y="209"/>
      <point x="215" y="192" type="curve" smooth="yes"/>
      <point x="314" y="174"/>
      <point x="319" y="162"/>
      <point x="319" y="145" type="curve" smooth="yes"/>
      <point x="319" y="135"/>
      <point x="307" y="130"/>
      <point x="296" y="130" type="curve" smooth="yes"/>
      <point x="263" y="130"/>
      <point x="249" y="160"/>
      <point x="220" y="160" type="curve" smooth="yes"/>
      <point x="217" y="160"/>
      <point x="215" y="160"/>
      <point x="212" y="160" type="curve" smooth="yes"/>
      <point x="46" y="160" type="line" smooth="yes"/>
      <point x="32" y="160"/>
      <point x="21" y="148"/>
      <point x="22" y="133" type="curve" smooth="yes"/>
      <point x="24" y="84"/>
      <point x="85" y="9"/>
      <point x="242" y="-7" type="curve"/>
      <point x="222" y="-52" type="line" smooth="yes"/>
      <point x="213" y="-71"/>
      <point x="215" y="-76"/>
      <point x="224" y="-85" type="curve" smooth="yes"/>
      <point x="245" y="-106" type="line" smooth="yes"/>
      <point x="258" y="-119"/>
      <point x="281" y="-106"/>
      <point x="299" y="-106" type="curve" smooth="yes"/>
      <point x="319" y="-106"/>
      <point x="327" y="-118"/>
      <point x="327" y="-130" type="curve" smooth="yes"/>
      <point x="327" y="-142"/>
      <point x="318" y="-154"/>
      <point x="299" y="-154" type="curve" smooth="yes"/>
      <point x="265" y="-154"/>
      <point x="260" y="-136"/>
      <point x="243" y="-151" type="curve" smooth="yes"/>
      <point x="222" y="-169" type="line" smooth="yes"/>
      <point x="199" y="-189"/>
      <point x="246" y="-220"/>
    </contour>
  </outline>
</glyph>
<glyph name="slashshortcomb" format="2">
  <unicode hex="0337"/>
  <anchor x="324" y="260" name="_center"/>
  <outline>
    <contour>
      <point x="61" y="-28" type="curve" smooth="yes"/>
      <point x="101" y="-28" type="line" smooth="yes"/>
      <point x="114" y="-28"/>
      <point x="122" y="-18"/>
      <point x="126" y="-13" type="curve" smooth="yes"/>
      <point x="600" y="511" type="line" smooth="yes"/>
      <point x="607" y="519"/>
      <point x="606" y="525"/>
      <point x="606" y="527" type="curve" smooth="yes"/>
      <point x="606" y="538"/>
      <point x="597" y="547"/>
      <point x="586" y="547" type="curve" smooth="yes"/>
      <point x="548" y="547" type="line" smooth="yes"/>
      <point x="535" y="547"/>
      <point x="526" y="537"/>
      <point x="522" y="532" type="curve" smooth="yes"/>
      <point x="48" y="8" type="line" smooth="yes"/>
      <point x="42" y="1"/>
      <point x="41" y="-3"/>
      <point x="41" y="-8" type="curve" smooth="yes"/>
      <point x="41" y="-19"/>
      <point x="50" y="-28"/>
    </contour>
  </outline>
</glyph>
<glyph name="slashlongcomb" format="2">
  <unicode hex="0338"/>
  <anchor x="285" y="351" name="_center"/>
  <outline>
    <contour>
      <point x="-11" y="-64" type="curve" smooth="yes"/>
      <point x="31" y="-64" type="line" smooth="yes"/>
      <point x="47" y="-64"/>
      <point x="53" y="-53"/>
      <point x="56" y="-49" type="curve" smooth="yes"/>
      <point x="597" y="729" type="line" smooth="yes"/>
      <point x="607" y="744"/>
      <point x="601" y="766"/>
      <point x="583" y="766" type="curve" smooth="yes"/>
      <point x="538" y="766" type="line" smooth="yes"/>
      <point x="525" y="766"/>
      <point x="518" y="756"/>
      <point x="515" y="752" type="curve" smooth="yes"/>
      <point x="-24" y="-25" type="line" smooth="yes"/>
      <point x="-38" y="-46"/>
      <point x="-29" y="-64"/>
    </contour>
  </outline>
</glyph>
<glyph name="Yat-cy" format="2">
  <advance width="782"/>
  <unicode hex="0462"/>
  <outline>
    <contour>
      <point x="40" y="520" type="curve"/>
      <point x="532" y="520" type="line"/>
      <point x="545" y="520"/>
      <point x="555" y="530"/>
      <point x="555" y="543" type="curve" smooth="yes"/>
      <point x="555" y="620" type="line" smooth="yes"/>
      <point x="555" y="633"/>
      <point x="548" y="643"/>
      <point x="532" y="643" type="curve"/>
      <point x="40" y="643" type="line"/>
      <point x="24" y="643"/>
      <point x="17" y="633"/>
      <point x="17" y="620" type="curve" smooth="yes"/>
      <point x="17" y="543" type="line" smooth="yes"/>
      <point x="17" y="530"/>
      <point x="27" y="520"/>
    </contour>
    <component base="Softsign-cy" xOffset="77"/>
  </outline>
</glyph>
<glyph name="Fita-cy" format="2">
  <advance width="742"/>
  <unicode hex="0472"/>
  <anchor x="371" y="0" name="bottom"/>
  <anchor x="371" y="350" name="center"/>
  <anchor x="668" y="10" name="ogonek"/>
  <anchor x="371" y="700" name="top"/>
  <anchor x="20" y="700" name="topleft"/>
  <anchor x="722" y="700" name="topright"/>
  <outline>
    <contour>
      <point x="280" y="289" type="line"/>
      <point x="462" y="289" type="line"/>
      <point x="462" y="411" type="line"/>
      <point x="280" y="411" type="line"/>
    </contour>
    <component base="O"/>
  </outline>
</glyph>
<glyph name="Zhedescender-cy" format="2">
  <advance width="1176"/>
  <unicode hex="0496"/>
  <anchor x="953" y="0" name="_bottomright"/>
  <anchor x="954" y="0" name="bottomright"/>
  <anchor x="568" y="700" name="top"/>
  <outline>
    <contour>
      <point x="933" y="-140" type="curve" smooth="yes"/>
      <point x="1129" y="-140" type="line" smooth="yes"/>
      <point x="1144" y="-140"/>
      <point x="1156" y="-128"/>
      <point x="1156" y="-113" type="curve" smooth="yes"/>
      <point x="1156" y="193" type="line" smooth="yes"/>
      <point x="1156" y="208"/>
      <point x="1144" y="220"/>
      <point x="1129" y="220" type="curve" smooth="yes"/>
      <point x="834" y="220" type="line"/>
      <point x="884" y="0" type="line"/>
      <point x="906" y="0" type="line"/>
      <point x="906" y="-113" type="line" smooth="yes"/>
      <point x="906" y="-128"/>
      <point x="918" y="-140"/>
    </contour>
    <component base="Zhe-cy"/>
  </outline>
</glyph>
<glyph name="zhedescender-cy" format="2">
  <advance width="1019"/>
  <unicode hex="0497"/>
  <anchor x="803.617" y="0" name="_bottomright"/>
  <anchor x="813" y="0" name="bottomright"/>
  <anchor x="507" y="520" name="top"/>
  <outline>
    <contour>
      <point x="793" y="-110" type="curve" smooth="yes"/>
      <point x="972" y="-110" type="line" smooth="yes"/>
      <point x="987" y="-110"/>
      <point x="999" y="-98"/>
      <point x="999" y="-83" type="curve" smooth="yes"/>
      <point x="999" y="148" type="line" smooth="yes"/>
      <point x="999" y="163"/>
      <point x="987" y="175"/>
      <point x="972" y="175" type="curve" smooth="yes"/>
      <point x="700" y="175" type="line"/>
      <point x="764" y="0" type="line"/>
      <point x="766" y="0" type="line"/>
      <point x="766" y="-83" type="line" smooth="yes"/>
      <point x="766" y="-98"/>
      <point x="778" y="-110"/>
    </contour>
    <component base="zhe-cy"/>
  </outline>
</glyph>
<glyph name="kadescender-cy" format="2">
  <advance width="695"/>
  <unicode hex="049B"/>
  <anchor x="356" y="0" name="_bottomright"/>
  <anchor x="356" y="0" name="bottomright"/>
  <anchor x="333" y="520" name="top"/>
  <outline>
    <contour>
      <point x="469" y="-110" type="curve" smooth="yes"/>
      <point x="648" y="-110" type="line" smooth="yes"/>
      <point x="663" y="-110"/>
      <point x="675" y="-98"/>
      <point x="675" y="-83" type="curve" smooth="yes"/>
      <point x="675" y="148" type="line" smooth="yes"/>
      <point x="675" y="163"/>
      <point x="663" y="175"/>
      <point x="648" y="175" type="curve" smooth="yes"/>
      <point x="376" y="175" type="line"/>
      <point x="418" y="0" type="line"/>
      <point x="442" y="0" type="line"/>
      <point x="442" y="-83" type="line" smooth="yes"/>
      <point x="442" y="-98"/>
      <point x="454" y="-110"/>
    </contour>
    <component base="ka-cy"/>
  </outline>
</glyph>
<glyph name="Esdescender-cy" format="2">
  <advance width="733"/>
  <unicode hex="04AA"/>
  <anchor x="713" y="0" name="bottomright"/>
  <anchor x="367" y="700" name="top"/>
  <outline>
    <contour>
      <point x="275" y="-140" type="curve" smooth="yes"/>
      <point x="471" y="-140" type="line" smooth="yes"/>
      <point x="486" y="-140"/>
      <point x="498" y="-128"/>
      <point x="498" y="-113" type="curve" smooth="yes"/>
      <point x="498" y="63" type="line"/>
      <point x="248" y="60" type="line"/>
      <point x="248" y="-113" type="line" smooth="yes"/>
      <point x="248" y="-128"/>
      <point x="260" y="-140"/>
    </contour>
    <component base="Es-cy"/>
  </outline>
</glyph>
<glyph name="Obarred-cy" format="2">
  <advance width="742"/>
  <unicode hex="04E8"/>
  <anchor x="371" y="700" name="top"/>
  <anchor x="371" y="0" name="bottom"/>
  <anchor x="371" y="350" name="center"/>
  <anchor x="668" y="10" name="ogonek"/>
  <anchor x="20" y="700" name="topleft"/>
  <anchor x="722" y="700" name="topright"/>
  <outline>
    <contour>
      <point x="163" y="289" type="curve" smooth="yes"/>
      <point x="578" y="289" type="line" smooth="yes"/>
      <point x="593" y="289"/>
      <point x="605" y="301"/>
      <point x="605" y="316" type="curve" smooth="yes"/>
      <point x="605" y="384" type="line" smooth="yes"/>
      <point x="605" y="399"/>
      <point x="593" y="411"/>
      <point x="578" y="411" type="curve" smooth="yes"/>
      <point x="163" y="411" type="line" smooth="yes"/>
      <point x="148" y="411"/>
      <point x="136" y="399"/>
      <point x="136" y="384" type="curve" smooth="yes"/>
      <point x="136" y="316" type="line" smooth="yes"/>
      <point x="136" y="301"/>
      <point x="148" y="289"/>
    </contour>
    <component base="O-cy"/>
  </outline>
</glyph>
<glyph name="Germandbls" format="2">
  <advance width="715"/>
  <unicode hex="1E9E"/>
  <anchor x="341" y="0" name="bottom"/>
  <outline>
    <contour>
      <point x="72" y="0" type="curve" smooth="yes"/>
      <point x="250" y="0" type="line" smooth="yes"/>
      <point x="265" y="0"/>
      <point x="277" y="12"/>
      <point x="277" y="27" type="curve"/>
      <point x="277" y="459" type="line" smooth="yes"/>
      <point x="277" y="516"/>
      <point x="299" y="541"/>
      <point x="348" y="541" type="curve" smooth="yes"/>
      <point x="376" y="541"/>
      <point x="395" y="531"/>
      <point x="395" y="517" type="curve" smooth="yes"/>
      <point x="395" y="513"/>
      <point x="393" y="510"/>
      <point x="389" y="506" type="curve" smooth="yes"/>
      <point x="325" y="432" type="line" smooth="yes"/>
      <point x="310" y="414"/>
      <point x="307" y="409"/>
      <point x="307" y="391" type="curve" smooth="yes"/>
      <point x="307" y="298" type="line" smooth="yes"/>
      <point x="307" y="281"/>
      <point x="317" y="271"/>
      <point x="336" y="271" type="curve" smooth="yes"/>
      <point x="377" y="271" type="line" smooth="yes"/>
      <point x="436" y="271"/>
      <point x="459" y="250"/>
      <point x="459" y="219" type="curve" smooth="yes"/>
      <point x="459" y="188"/>
      <point x="437" y="168"/>
      <point x="378" y="168" type="curve" smooth="yes"/>
      <point x="340" y="168" type="line" smooth="yes"/>
      <point x="320" y="168"/>
      <point x="307" y="157"/>
      <point x="307" y="141" type="curve" smooth="yes"/>
      <point x="307" y="27" type="line" smooth="yes"/>
      <point x="307" y="11"/>
      <point x="320" y="0"/>
      <point x="340" y="0" type="curve"/>
      <point x="435" y="0" type="line" smooth="yes"/>
      <point x="593" y="0"/>
      <point x="705" y="81"/>
      <point x="705" y="207" type="curve" smooth="yes"/>
      <point x="705" y="307"/>
      <point x="632" y="394"/>
      <point x="463" y="394" type="curve" smooth="yes"/>
      <point x="491" y="290" type="line"/>
      <point x="651" y="469" type="line" smooth="yes"/>
      <point x="676" y="496"/>
      <point x="679" y="508"/>
      <point x="679" y="526" type="curve" smooth="yes"/>
      <point x="679" y="610"/>
      <point x="553" y="710"/>
      <point x="362" y="710" type="curve" smooth="yes"/>
      <point x="170" y="710"/>
      <point x="45" y="617"/>
      <point x="45" y="452" type="curve" smooth="yes"/>
      <point x="45" y="27" type="line" smooth="yes"/>
      <point x="45" y="12"/>
      <point x="57" y="0"/>
    </contour>
  </outline>
</glyph>
<glyph name="fraction" format="2">
  <advance width="181"/>
  <unicode hex="2044"/>
  <outline>
    <contour>
      <point x="-191" y="0" type="curve" smooth="yes"/>
      <point x="-117" y="0" type="line" smooth="yes"/>
      <point x="-98" y="0"/>
      <point x="-90" y="7"/>
      <point x="-81" y="19" type="curve" smooth="yes"/>
      <point x="413" y="669" type="line" smooth="yes"/>
      <point x="416" y="673"/>
      <point x="417" y="678"/>
      <point x="417" y="680" type="curve" smooth="yes"/>
      <point x="417" y="692"/>
      <point x="407" y="700"/>
      <point x="393" y="700" type="curve" smooth="yes"/>
      <point x="319" y="700" type="line" smooth="yes"/>
      <point x="300" y="700"/>
      <point x="292" y="693"/>
      <point x="283" y="681" type="curve" smooth="yes"/>
      <point x="-211" y="31" type="line" smooth="yes"/>
      <point x="-214" y="27"/>
      <point x="-215" y="22"/>
      <point x="-215" y="20" type="curve" smooth="yes"/>
      <point x="-215" y="8"/>
      <point x="-205" y="0"/>
    </contour>
  </outline>
</glyph>
<glyph name="rupeeIndian" format="2">
  <advance width="612"/>
  <unicode hex="20B9"/>
  <anchor x="179" y="0" name="bottom"/>
  <anchor x="151" y="700" name="top"/>
  <outline>
    <contour>
      <point x="305" y="0" type="curve" smooth="yes"/>
      <point x="513" y="0" type="line" smooth="yes"/>
      <point x="529" y="0"/>
      <point x="537" y="10"/>
      <point x="537" y="22" type="curve" smooth="yes"/>
      <point x="537" y="27"/>
      <point x="533" y="33"/>
      <point x="527" y="40" type="curve" smooth="yes"/>
      <point x="266" y="318" type="line"/>
      <point x="229" y="214" type="line"/>
      <point x="278" y="222" type="line" smooth="yes"/>
      <point x="396" y="241"/>
      <point x="499" y="323"/>
      <point x="499" y="457" type="curve" smooth="yes"/>
      <point x="499" y="509"/>
      <point x="484" y="568"/>
      <point x="444" y="596" type="curve"/>
      <point x="367" y="578" type="line"/>
      <point x="545" y="578" type="line" smooth="yes"/>
      <point x="560" y="578"/>
      <point x="572" y="590"/>
      <point x="572" y="605" type="curve" smooth="yes"/>
      <point x="572" y="673" type="line" smooth="yes"/>
      <point x="572" y="688"/>
      <point x="560" y="700"/>
      <point x="545" y="700" type="curve" smooth="yes"/>
      <point x="94" y="700" type="line" smooth="yes"/>
      <point x="79" y="700"/>
      <point x="67" y="688"/>
      <point x="67" y="673" type="curve" smooth="yes"/>
      <point x="67" y="605" type="line" smooth="yes"/>
      <point x="67" y="590"/>
      <point x="79" y="578"/>
      <point x="94" y="578" type="curve" smooth="yes"/>
      <point x="127" y="578" type="line" smooth="yes"/>
      <point x="214" y="578"/>
      <point x="239" y="530"/>
      <point x="239" y="475" type="curve" smooth="yes"/>
      <point x="239" y="412"/>
      <point x="214" y="373"/>
      <point x="122" y="373" type="curve" smooth="yes"/>
      <point x="94" y="373" type="line" smooth="yes"/>
      <point x="79" y="373"/>
      <point x="67" y="361"/>
      <point x="67" y="346" type="curve" smooth="yes"/>
      <point x="67" y="273" type="line" smooth="yes"/>
      <point x="67" y="242"/>
      <point x="66" y="225"/>
      <point x="85" y="206" type="curve" smooth="yes"/>
      <point x="262" y="27" type="line" smooth="yes"/>
      <point x="269" y="19"/>
      <point x="278" y="0"/>
    </contour>
    <contour>
      <point x="93" y="414" type="curve" smooth="yes"/>
      <point x="544" y="414" type="line" smooth="yes"/>
      <point x="559" y="414"/>
      <point x="571" y="426"/>
      <point x="571" y="441" type="curve" smooth="yes"/>
      <point x="572" y="509" type="line" smooth="yes"/>
      <point x="572" y="524"/>
      <point x="560" y="536"/>
      <point x="545" y="536" type="curve" smooth="yes"/>
      <point x="94" y="536" type="line" smooth="yes"/>
      <point x="79" y="536"/>
      <point x="67" y="524"/>
      <point x="67" y="509" type="curve" smooth="yes"/>
      <point x="66" y="441" type="line" smooth="yes"/>
      <point x="66" y="426"/>
      <point x="78" y="414"/>
    </contour>
  </outline>
</glyph>
<glyph name="finalpedagesh-hb" format="2">
  <advance width="600"/>
  <unicode hex="FB43"/>
  <anchor x="284" y="0" name="bottom"/>
  <anchor x="20" y="0" name="bottomleft"/>
  <anchor x="290" y="242" name="center"/>
  <anchor x="284" y="520" name="top"/>
  <anchor x="20" y="520" name="topleft"/>
  <outline>
    <contour>
      <point x="290" y="205" type="curve" smooth="yes"/>
      <point x="303" y="205" type="line" smooth="yes"/>
      <point x="316" y="205"/>
      <point x="325" y="214"/>
      <point x="325" y="227" type="curve" smooth="yes"/>
      <point x="325" y="290" type="line" smooth="yes"/>
      <point x="325" y="303"/>
      <point x="316" y="312"/>
      <point x="303" y="312" type="curve" smooth="yes"/>
      <point x="290" y="312" type="line" smooth="yes"/>
      <point x="277" y="312"/>
      <point x="268" y="303"/>
      <point x="268" y="290" type="curve" smooth="yes"/>
      <point x="268" y="227" type="line" smooth="yes"/>
      <point x="268" y="214"/>
      <point x="277" y="205"/>
    </contour>
    <contour>
      <point x="205" y="387" type="line"/>
      <point x="257" y="388" type="line" smooth="yes"/>
      <point x="305" y="389"/>
      <point x="332" y="361"/>
      <point x="335" y="311" type="curve"/>
      <point x="335" y="-97" type="line"/>
      <point x="335" y="-112"/>
      <point x="347" y="-124"/>
      <point x="362" y="-124" type="curve" smooth="yes"/>
      <point x="522" y="-124" type="line" smooth="yes"/>
      <point x="537" y="-124"/>
      <point x="549" y="-112"/>
      <point x="549" y="-97" type="curve"/>
      <point x="548" y="308" type="line"/>
      <point x="540" y="462"/>
      <point x="461" y="571"/>
      <point x="279" y="571" type="curve" smooth="yes"/>
      <point x="56" y="571" type="line" smooth="yes"/>
      <point x="41" y="571"/>
      <point x="29" y="560"/>
      <point x="29" y="544" type="curve" smooth="yes"/>
      <point x="29" y="398" type="line"/>
      <point x="29" y="280"/>
      <point x="94" y="207"/>
      <point x="162" y="200" type="curve" smooth="yes"/>
      <point x="221" y="194" type="line" smooth="yes"/>
      <point x="237" y="192"/>
      <point x="258" y="204"/>
      <point x="258" y="222" type="curve" smooth="yes"/>
      <point x="257" y="302" type="line" smooth="yes"/>
      <point x="257" y="314"/>
      <point x="251" y="327"/>
      <point x="240" y="332" type="curve" smooth="yes"/>
      <point x="219" y="341" type="line" smooth="yes"/>
      <point x="207" y="346"/>
      <point x="205" y="364"/>
      <point x="205" y="380" type="curve"/>
    </contour>
  </outline>
</glyph>
<glyph name="periodcentered.loclCAT.case" format="2">
  <advance width="3"/>
  <outline>
    <contour>
      <point x="-197" y="311" type="curve" smooth="yes"/>
      <point x="-66" y="311" type="line" smooth="yes"/>
      <point x="-53" y="311"/>
      <point x="-43" y="321"/>
      <point x="-43" y="334" type="curve" smooth="yes"/>
      <point x="-43" y="465" type="line" smooth="yes"/>
      <point x="-43" y="478"/>
      <point x="-53" y="488"/>
      <point x="-66" y="488" type="curve" smooth="yes"/>
      <point x="-197" y="488" type="line" smooth="yes"/>
      <point x="-210" y="488"/>
      <point x="-220" y="478"/>
      <point x="-220" y="465" type="curve" smooth="yes"/>
      <point x="-220" y="334" type="line" smooth="yes"/>
      <point x="-220" y="321"/>
      <point x="-210" y="311"/>
    </contour>
  </outline>
</glyph>
<glyph name="periodcentered.loclCAT" format="2">
  <advance width="177"/>
  <outline>
    <contour>
      <point x="23" y="273" type="curve" smooth="yes"/>
      <point x="154" y="273" type="line" smooth="yes"/>
      <point x="167" y="273"/>
      <point x="177" y="283"/>
      <point x="177" y="296" type="curve" smooth="yes"/>
      <point x="177" y="427" type="line" smooth="yes"/>
      <point x="177" y="440"/>
      <point x="167" y="450"/>
      <point x="154" y="450" type="curve" smooth="yes"/>
      <point x="23" y="450" type="line" smooth="yes"/>
      <point x="10" y="450"/>
      <point x="0" y="440"/>
      <point x="0" y="427" type="curve" smooth="yes"/>
      <point x="0" y="296" type="line" smooth="yes"/>
      <point x="0" y="283"/>
      <point x="10" y="273"/>
    </contour>
  </outline>
</glyph>
<glyph name="tildecomb.case" format="2">
  <anchor x="254" y="700" name="_top"/>
  <anchor x="254" y="925" name="top"/>
  <outline>
    <contour>
      <point x="321" y="745" type="curve" smooth="yes"/>
      <point x="430" y="745"/>
      <point x="457" y="855"/>
      <point x="457" y="901" type="curve" smooth="yes"/>
      <point x="457" y="911"/>
      <point x="450" y="920"/>
      <point x="438" y="920" type="curve" smooth="yes"/>
      <point x="354" y="920" type="line" smooth="yes"/>
      <point x="332" y="920"/>
      <point x="334" y="889"/>
      <point x="304" y="889" type="curve" smooth="yes"/>
      <point x="265" y="889"/>
      <point x="246" y="925"/>
      <point x="186" y="925" type="curve" smooth="yes"/>
      <point x="76" y="925"/>
      <point x="50" y="814"/>
      <point x="50" y="768" type="curve" smooth="yes"/>
      <point x="50" y="758"/>
      <point x="59" y="750"/>
      <point x="69" y="750" type="curve" smooth="yes"/>
      <point x="153" y="750" type="line" smooth="yes"/>
      <point x="175" y="750"/>
      <point x="172" y="781"/>
      <point x="203" y="781" type="curve" smooth="yes"/>
      <point x="242" y="781"/>
      <point x="261" y="745"/>
    </contour>
  </outline>
</glyph>
<glyph name="zero.tf.zero" format="2">
  <advance width="700"/>
  <outline>
    <contour>
      <point x="261" y="41" type="line"/>
      <point x="503" y="620" type="line"/>
      <point x="448" y="653" type="line"/>
      <point x="205" y="72" type="line"/>
    </contour>
    <component base="zero.tf"/>
  </outline>
</glyph>
<glyph name="zero.zero" format="2">
  <advance width="718"/>
  <outline>
    <contour>
      <point x="269" y="41" type="line"/>
      <point x="511" y="620" type="line"/>
      <point x="456" y="653" type="line"/>
      <point x="213" y="72" type="line"/>
    </contour>
    <component base="zero"/>
  </outline>
</glyph>
